<svg width="25" height="24" viewBox="0 0 25 24" fill="none" xmlns="http://www.w3.org/2000/svg">
<path d="M10.3569 10.5469C10.6382 10.5469 10.9194 10.2656 10.9194 9.98438V7.73438C10.9194 7.40625 10.6382 7.17188 10.3569 7.17188H5.76318C7.26318 5.10938 9.65381 3.75 12.4194 3.75C16.9663 3.75 20.6694 7.45312 20.6694 12C20.6694 16.5938 16.9663 20.25 12.4194 20.25C10.3101 20.25 8.38818 19.5 6.93506 18.1875C6.70068 18 6.37256 18 6.18506 18.2344L4.59131 19.8281C4.35693 20.0625 4.35693 20.4375 4.59131 20.625C6.65381 22.5 9.41943 23.625 12.4194 23.625C18.8413 23.625 24.0444 18.4688 24.0444 12.0469C24.0444 5.625 18.9351 0.46875 12.5132 0.421875C9.04443 0.375 5.90381 1.875 3.79443 4.26562V0.5625C3.79443 0.28125 3.51318 0 3.23193 0H0.981934C0.653809 0 0.419434 0.28125 0.419434 0.5625V9.98438C0.419434 10.2656 0.653809 10.5469 0.981934 10.5469H10.3569Z" fill="#024E82"/>
</svg>
